# Blender v2.79 (sub 0) OBJ File: 'gloo.blend'
# www.blender.org
mtllib gloo.mtl
o Plane.021_Plane.023
v 1.000049 0.169561 -0.058801
v 1.000049 -0.517162 -0.709348
v 1.000049 0.242161 -2.137611
v 1.000049 -0.513129 -1.525749
v 1.000049 -0.605903 -1.100409
v 1.000049 -0.381646 -0.815172
v 1.000049 -0.372348 -1.404477
v 1.000049 0.024358 -1.103050
v 1.000049 -0.081216 -1.523140
v 1.000049 0.000511 -1.381412
v 1.000049 -0.115096 -1.232179
v 1.000049 -0.100599 -0.671989
v 1.000049 -0.114410 -0.921909
v 1.000049 0.004675 -0.790310
vn 1.0000 0.0000 0.0000
usemtl Material.024
s off
f 1//1 2//1 6//1 5//1 7//1 4//1 3//1 9//1 10//1 11//1 8//1 13//1 14//1 12//1
o Plane.019_Plane.021
v 1.000049 0.778208 -0.136735
v 1.000049 0.360904 -0.482728
v 1.000049 0.552705 -0.896271
vn 1.0000 0.0000 0.0000
usemtl Material.022
s off
f 15//2 16//2 17//2
o NurbsPath
v -0.999951 0.464254 -0.064045
v -0.914845 0.464254 -0.064045
v -0.829739 0.464254 -0.064045
v -0.744632 0.464254 -0.064045
v -0.659526 0.464254 -0.064045
v -0.574419 0.464254 -0.064045
v -0.489313 0.464254 -0.064045
v -0.404207 0.464254 -0.064045
v -0.319100 0.464254 -0.064045
v -0.233994 0.464254 -0.064045
v -0.148888 0.464254 -0.064045
v -0.063781 0.464254 -0.064045
v 0.021325 0.464254 -0.064045
v 0.106431 0.464254 -0.064045
v 0.191538 0.464254 -0.064045
v 0.276644 0.464254 -0.064045
v 0.361751 0.464254 -0.064045
v 0.446857 0.464254 -0.064045
v 0.531963 0.464254 -0.064045
v 0.617070 0.464254 -0.064045
v 0.702176 0.464254 -0.064045
v 0.787283 0.464254 -0.064045
v 0.872389 0.464254 -0.064045
v 0.957495 0.464254 -0.064045
v 1.042602 0.464254 -0.064045
v 1.127708 0.464254 -0.064045
v 1.212815 0.464254 -0.064045
v 1.297921 0.464254 -0.064045
v 1.383027 0.464254 -0.064045
v 1.468134 0.464254 -0.064045
v 1.553240 0.464254 -0.064045
v 1.638346 0.464254 -0.064045
v 1.723453 0.464254 -0.064045
v 1.808559 0.464254 -0.064045
v 1.893666 0.464254 -0.064045
v 1.978772 0.464254 -0.064045
v 2.063878 0.464254 -0.064045
v 2.148985 0.464254 -0.064045
v 2.234091 0.464254 -0.064045
v 2.319197 0.464254 -0.064045
v 2.404304 0.464254 -0.064045
v 2.489410 0.464254 -0.064045
v 2.574517 0.464254 -0.064045
v 2.659623 0.464254 -0.064045
v 2.744729 0.464254 -0.064045
v 2.829836 0.464254 -0.064045
v 2.914942 0.464254 -0.064045
v 3.000048 0.464254 -0.064045
l 18 19
l 19 20
l 20 21
l 21 22
l 22 23
l 23 24
l 24 25
l 25 26
l 26 27
l 27 28
l 28 29
l 29 30
l 30 31
l 31 32
l 32 33
l 33 34
l 34 35
l 35 36
l 36 37
l 37 38
l 38 39
l 39 40
l 40 41
l 41 42
l 42 43
l 43 44
l 44 45
l 45 46
l 46 47
l 47 48
l 48 49
l 49 50
l 50 51
l 51 52
l 52 53
l 53 54
l 54 55
l 55 56
l 56 57
l 57 58
l 58 59
l 59 60
l 60 61
l 61 62
l 62 63
l 63 64
l 64 65
o Plane.001_Plane.002
v 1.044389 0.008329 -1.814024
v 1.044389 -0.460481 -1.814024
v 1.044389 0.008329 -2.282834
v 1.044389 -0.460481 -2.282834
vn 1.0000 0.0000 0.0000
usemtl Material.017
s off
f 66//3 67//3 69//3 68//3
o Plane
v 0.823137 1.239645 -0.109101
v 0.823137 -0.760356 -0.109101
v 0.823137 1.239645 -2.109101
v 0.823137 -0.760356 -2.109101
vn 1.0000 -0.0000 0.0000
usemtl Material.001
s off
f 70//4 71//4 73//4 72//4
o Plane.002_Plane.003
v 0.889334 1.197053 0.191859
v 0.889334 0.546381 0.191859
v 0.889334 1.197053 -0.458813
v 0.889334 0.546381 -0.458813
vn 1.0000 0.0000 0.0000
usemtl Material.020
s off
f 74//5 75//5 77//5 76//5
o Plane.003_Plane.004
v 0.939697 1.104814 -0.492605
v 0.939697 1.307106 -0.492605
v 0.939697 1.104814 -0.290313
v 0.939697 1.307106 -0.290313
vn -1.0000 0.0000 0.0000
usemtl Material.021
s off
f 78//6 80//6 81//6 79//6
o Plane.004_Plane.005
v 0.899223 -0.425304 0.102894
v 0.899223 -0.895294 0.102894
v 0.899223 -0.425304 -0.367096
v 0.899223 -0.895294 -0.367096
vn 1.0000 0.0000 0.0000
usemtl Material.019
s off
f 82//7 83//7 85//7 84//7
o Plane.005_Plane.006
v 0.911810 -0.295832 -1.679675
v 0.911810 -0.506952 -1.679675
v 0.911810 -0.295832 -1.890795
v 0.911810 -0.506952 -1.890795
vn 1.0000 0.0000 0.0000
usemtl Material.018
s off
f 86//8 87//8 89//8 88//8
o Plane.006_Plane.007
v 0.606506 0.214995 -0.783707
v 0.606506 -0.435793 -0.783707
v 0.606506 0.214995 -1.434495
v 0.606506 -0.435793 -1.434495
vn 1.0000 0.0000 0.0000
usemtl Material.004
s off
f 90//9 91//9 93//9 92//9
o Plane.007_Plane.008
v 0.681552 0.137792 -0.122816
v 0.681552 -0.399154 -0.122816
v 0.681552 0.137792 -0.659763
v 0.681552 -0.399154 -0.659763
vn 1.0000 0.0000 0.0000
usemtl Material.005
s off
f 94//10 95//10 97//10 96//10
o Plane.008_Plane.009
v 0.491395 1.163098 -0.640909
v 0.491395 0.277921 -0.640909
v 0.491395 1.163098 -1.526087
v 0.491395 0.277921 -1.526087
vn 1.0000 -0.0000 0.0000
usemtl Material.006
s off
f 98//11 99//11 101//11 100//11
o Plane.009_Plane.010
v 0.296457 0.134658 -0.305273
v 0.296457 -0.325112 -0.305273
v 0.296457 0.134658 -0.765043
v 0.296457 -0.325112 -0.765043
vn 1.0000 0.0000 0.0000
usemtl Material.007
s off
f 102//12 103//12 105//12 104//12
o Plane.010_Plane.011
v 0.543730 1.372456 0.014649
v 0.543730 0.920737 0.014649
v 0.543730 1.372456 -0.437071
v 0.543730 0.920737 -0.437071
vn 1.0000 0.0000 0.0000
usemtl Material.008
s off
f 106//13 107//13 109//13 108//13
o Plane.011_Plane.012
v 0.355389 0.072040 -0.987363
v 0.355389 -0.544298 -0.987363
v 0.355389 0.072040 -1.603701
v 0.355389 -0.544298 -1.603701
vn 1.0000 0.0000 0.0000
usemtl Material.009
s off
f 110//14 111//14 113//14 112//14
o Plane.012_Plane.013
v 0.049429 0.899195 -0.884962
v 0.049429 0.078056 -0.884962
v 0.049429 0.899195 -1.706101
v 0.049429 0.078056 -1.706101
vn 1.0000 -0.0000 0.0000
usemtl Material.010
s off
f 114//15 115//15 117//15 116//15
o Plane.013_Plane.014
v -0.197711 0.191320 -0.405485
v -0.197711 -0.105720 -0.405485
v -0.197711 0.191320 -0.702526
v -0.197711 -0.105720 -0.702526
vn 1.0000 0.0000 0.0000
usemtl Material.011
s off
f 118//16 119//16 121//16 120//16
o Plane.014_Plane.015
v -0.360737 0.415689 -0.661369
v -0.360737 -0.225107 -0.661369
v -0.360737 0.415689 -1.302164
v -0.360737 -0.225107 -1.302164
vn 1.0000 0.0000 0.0000
usemtl Material.012
s off
f 122//17 123//17 125//17 124//17
o Plane.015_Plane.016
v -0.162816 0.992352 -1.736968
v -0.162816 0.724711 -1.736968
v -0.162816 0.992352 -2.004609
v -0.162816 0.724711 -2.004609
vn 1.0000 0.0000 0.0000
usemtl Material.013
s off
f 126//18 127//18 129//18 128//18
o Plane.016_Plane.017
v -0.494262 0.082707 -0.760573
v -0.494262 -0.359680 -0.760573
v -0.494262 0.082707 -1.202960
v -0.494262 -0.359680 -1.202960
vn 1.0000 0.0000 0.0000
usemtl Material.014
s off
f 130//19 131//19 133//19 132//19
o Plane.017_Plane.018
v -0.153682 0.177073 -1.323054
v -0.153682 -0.116295 -1.323054
v -0.153682 0.177073 -1.616423
v -0.153682 -0.116295 -1.616423
vn 1.0000 0.0000 0.0000
usemtl Material.015
s off
f 134//20 135//20 137//20 136//20
o Plane.018_Plane.019
v -0.798055 0.259457 -0.889122
v -0.798055 0.075706 -0.889122
v -0.798055 0.259457 -1.072873
v -0.798055 0.075706 -1.072873
vn 1.0000 0.0000 0.0000
usemtl Material.016
s off
f 138//21 139//21 141//21 140//21
o Plane.020_Plane.022
v 0.982162 0.778208 -1.938207
v 0.994583 0.360904 -1.592437
v 1.009430 0.552705 -1.179161
vn -0.9994 -0.0000 0.0359
usemtl Material.023
s off
f 142//22 143//22 144//22
